<svg xmlns="http://www.w3.org/2000/svg" width="32" height="32" viewBox="0 0 32 32">
  <path fill="#4CAF50" d="M16,2 C10.5,2 6,6.5 6,12 C6,20 16,30 16,30 C16,30 26,20 26,12 C26,6.5 21.5,2 16,2 Z" />
  <path fill="white" d="M16,5 C19.9,5 23,8.1 23,12 C23,15.9 19.9,19 16,19 C12.1,19 9,15.9 9,12 C9,8.1 12.1,5 16,5 Z" />
  <path fill="#4CAF50" d="M19,10 L17,10 L17,12 L15,12 L15,14 L17,14 L17,16 L19,16 L19,14 L21,14 L21,12 L19,12 Z" />
  <path fill="#4CAF50" d="M12,10 C11.4,10 11,10.4 11,11 L11,17 C11,17.6 11.4,18 12,18 L13,18 C13.6,18 14,17.6 14,17 L14,11 C14,10.4 13.6,10 13,10 L12,10 Z" />
</svg> 