<svg xmlns="http://www.w3.org/2000/svg" width="32" height="32" viewBox="0 0 32 32">
  <path fill="#FF9800" d="M16,2 C10.5,2 6,6.5 6,12 C6,20 16,30 16,30 C16,30 26,20 26,12 C26,6.5 21.5,2 16,2 Z" />
  <path fill="white" d="M16,5 C19.9,5 23,8.1 23,12 C23,15.9 19.9,19 16,19 C12.1,19 9,15.9 9,12 C9,8.1 12.1,5 16,5 Z" />
  <path fill="#FF9800" d="M14,9 L14,15 L13,15 L13,9 L12,9 L12,15 L11,15 L11,9 L10,9 L10,15 C10,16.1 10.9,17 12,17 L13,17 L13,19 L15,19 L15,17 L16,17 L16,9 L14,9 Z" />
  <path fill="#FF9800" d="M20,9 C18.9,9 18,9.9 18,11 L18,19 L20,19 L20,15 L22,15 L22,9 L20,9 Z M20,13 L20,11 L20,11 L20,13 L20,13 Z" />
</svg>